PathFileType	4	(x/y/z)	S02_P20_T45
DataRate	CameraRate	NumFrames	NumMarkers	Units	OrigDataRate	OrigDataStartFrame	OrigNumFrames
240	240	10	51	mm	240	217	347
Frame#	Time	Sternum			R.Acromium			L.Acromium			Top.Head			R.ASIS			L.ASIS			R.PSIS			L.PSIS			R.Great.Tro			L.Great.Tro			R.Iliac.Crest			L.Iliac.Crest			V.Sacral			R.Thigh.Upper.Post			R.Thigh.Lower.Ant			R.Thigh.Lower.Post			R.Thigh.Upper.Ant			R.Knee.Lat			R.Knee.Med			R.Shank.Upper.Post			R.Shank.Lower.Ant			R.Shank.Lower.Post			R.Shank.Upper.Ant			R.Ankle.Lat			R.Ankle.Med			R.Heel.Upper			R.Heel.Med			R.Heel.Lat			R.Toe.Lat			R.Toe.Med			R.Toe.Tip			L.Thigh.Upper.Post			L.Thigh.Lower.Ant			L.Thigh.Lower.Post			L.Thigh.Upper.Ant			L.Knee.Lat			L.Knee.Med			L.Shank.Upper.Post			L.Shank.Lower.Ant			L.Shank.Lower.Post			L.Shank.Upper.Ant			L.Ankle.Lat			L.Ankle.Med			L.Heel.Upper			L.Heel.Med			L.Heel.Lat			L.Toe.Lat			L.Toe.Med			L.Toe.Tip			Cervical.Spine			Back			
		X1	Y1	Z1	X2	Y2	Z2	X3	Y3	Z3	X4	Y4	Z4	X5	Y5	Z5	X6	Y6	Z6	X7	Y7	Z7	X8	Y8	Z8	X9	Y9	Z9	X10	Y10	Z10	X11	Y11	Z11	X12	Y12	Z12	X13	Y13	Z13	X14	Y14	Z14	X15	Y15	Z15	X16	Y16	Z16	X17	Y17	Z17	X18	Y18	Z18	X19	Y19	Z19	X20	Y20	Z20	X21	Y21	Z21	X22	Y22	Z22	X23	Y23	Z23	X24	Y24	Z24	X25	Y25	Z25	X26	Y26	Z26	X27	Y27	Z27	X28	Y28	Z28	X29	Y29	Z29	X30	Y30	Z30	X31	Y31	Z31	X32	Y32	Z32	X33	Y33	Z33	X34	Y34	Z34	X35	Y35	Z35	X36	Y36	Z36	X37	Y37	Z37	X38	Y38	Z38	X39	Y39	Z39	X40	Y40	Z40	X41	Y41	Z41	X42	Y42	Z42	X43	Y43	Z43	X44	Y44	Z44	X45	Y45	Z45	X46	Y46	Z46	X47	Y47	Z47	X48	Y48	Z48	X49	Y49	Z49	X50	Y50	Z50	X51	Y51	Z51	

217	0.9	-80.955	1064.3	298.27	-172.62	1305.7	445.21	-191.93	1316	152.28	-104.64	1589.2	302.34	-135.98	898.52	416.95	-97.556	894.94	206.78	-336.59	947.99	326.07	-329.33	952.3	251.56	-241.2	795.01	490.93	-197.82	806.53	100.27	-246.83	943.62	454.9	-215.44	946.52	123.88	-362.45	905.58	280.11	-289.65	591.88	465.23	-258.43	501.72	427.19	-329.37	513.31	441.22	-223.17	581.54	448.59	-339.59	433.42	423.23	-350.2	428.03	278.67	-491.92	271.59	401.1	-454.57	169.03	380.96	-514.33	202.02	390.25	-429.76	232.01	400.18	-537.56	106.02	374.94	-527.33	122.17	290.63	-602.23	101.42	318.87	-592.82	68.173	291.24	-603.33	69.457	354.4	-445.86	38.318	397.5	-412.58	31.81	290.76	-363.62	55.009	346.04	-127.68	582.45	120.31	-25.415	544.96	137.1	-91.431	502.24	145.38	-71.042	625.48	112.59	-9.3879	466.52	145.25	-24.775	457.56	286.43	-36.308	278.55	145.22	60.028	221.3	153.96	-11.824	209.29	160.13	28.319	289.77	139.98	59.229	107.31	164.94	76.726	111.4	246.78	18.752	55.911	201.97	35.832	37.079	237.2	33.532	29.047	175.7	190.84	76.234	141.43	206.07	103.14	246.84	255.17	138.13	197.99	-256.01	1374.2	307.92	-340.88	1124.7	314.22
218	0.90417	-74.362	1063.1	297.96	-166.63	1304.8	444.44	-185.61	1314.8	151.44	-98.786	1588.3	301.49	-129.68	897.43	417.1	-90.553	893.73	206.86	-330.03	946.82	325.3	-322.62	951.18	250.82	-235.23	793.85	490.5	-190.56	805.76	100.06	-240.79	942.41	454.52	-208.2	945.38	123.33	-355.74	904.43	279.22	-283.96	590.99	464.83	-252.66	500.66	427.34	-323.65	512.41	440.93	-217.39	580.51	448.69	-334.03	432.5	423.15	-343.91	426.74	278.62	-488.25	272.7	401.15	-452.54	169.56	381.22	-511.71	203.42	390.41	-426.8	232.23	400.3	-536.31	107.49	375.36	-525.9	123.74	291.01	-600.96	103.98	319.3	-592.01	70.768	291.49	-602.52	71.86	354.65	-445.67	38.228	397.57	-412.55	31.812	290.8	-363.56	54.768	345.99	-121.21	581.55	120.23	-19.029	543.91	137.24	-85.125	501.27	145.32	-64.501	624.49	112.62	-3.3585	465.28	145.31	-18.417	456.63	286.29	-31.246	277.5	145.37	64.619	219.65	154.48	-7.2916	208.11	160.36	33.431	288.29	140.43	63.084	106.12	165.34	80.297	109.83	247.3	22.004	55.681	202.14	38.66	36.417	237.33	36.474	28.768	175.79	194.27	74.07	142.06	209.44	100.46	247.64	259.01	134.98	199.02	-249.97	1373.1	306.99	-334.49	1123.4	313.48
219	0.90833	-67.748	1062	297.64	-160.63	1303.9	443.67	-179.26	1313.7	150.59	-92.923	1587.5	300.64	-123.32	896.4	417.18	-83.548	892.6	206.9	-323.43	945.71	324.58	-315.89	950.14	250.13	-229.16	792.69	490.06	-183.34	805.13	99.83	-234.66	941.27	454.16	-200.97	944.33	122.78	-348.99	903.33	278.38	-278.12	590.1	464.4	-246.69	499.62	427.49	-317.74	511.49	440.64	-211.47	579.51	448.77	-328.25	431.56	423.09	-337.41	425.43	278.6	-484.41	273.9	401.23	-450.38	170.16	381.52	-508.93	204.92	390.58	-423.69	232.52	400.46	-534.93	109.08	375.8	-524.26	125.41	291.43	-599.52	106.75	319.76	-591.06	73.584	291.77	-601.59	74.478	354.93	-445.46	38.16	397.65	-412.53	31.827	290.85	-363.51	54.524	345.95	-114.8	580.69	120.18	-12.683	542.92	137.35	-78.845	500.35	145.31	-58.028	623.55	112.63	2.676	464.12	145.38	-11.937	455.84	286.14	-26.315	276.58	145.55	69.006	218.01	155.03	-2.9737	207.03	160.61	38.42	286.86	140.91	66.56	104.98	165.78	83.503	108.27	247.84	24.803	55.6	202.35	40.993	35.862	237.49	38.899	28.625	175.9	197.24	71.758	142.69	212.43	97.555	248.44	262.52	131.52	200.04	-243.91	1372.2	306.03	-328.07	1122.3	312.72
220	0.9125	-61.114	1061	297.31	-154.64	1303.1	442.9	-172.88	1312.6	149.72	-87.051	1586.7	299.78	-116.9	895.42	417.19	-76.545	891.55	206.88	-316.79	944.65	323.9	-309.16	949.17	249.49	-222.98	791.55	489.63	-176.17	804.63	99.568	-228.43	940.18	453.8	-193.75	943.38	122.23	-342.2	902.29	277.58	-272.12	589.21	463.96	-240.52	498.6	427.65	-311.62	510.55	440.33	-205.37	578.55	448.84	-322.25	430.6	423.07	-330.68	424.09	278.6	-480.36	275.18	401.34	-448.08	170.86	381.86	-505.97	206.52	390.77	-420.41	232.87	400.65	-533.39	110.79	376.27	-522.41	127.2	291.9	-597.89	109.73	320.24	-589.95	76.632	292.06	-600.52	77.325	355.22	-445.23	38.122	397.75	-412.51	31.862	290.91	-363.47	54.274	345.9	-108.43	579.88	120.16	-6.3771	541.99	137.42	-72.594	499.5	145.33	-51.62	622.67	112.61	8.7183	463.04	145.43	-5.3581	455.17	285.97	-21.488	275.78	145.74	73.218	216.4	155.62	1.1641	206.06	160.88	43.309	285.49	141.41	69.703	103.91	166.24	86.386	106.74	248.4	27.203	55.657	202.59	42.892	35.415	237.67	40.873	28.61	176.03	199.79	69.336	143.3	215.08	94.483	249.23	265.73	127.81	201.04	-237.83	1371.2	305.05	-321.62	1121.2	311.93
221	0.91667	-54.465	1060.1	296.96	-148.66	1302.4	442.12	-166.48	1311.6	148.82	-81.169	1586.1	298.9	-110.42	894.51	417.12	-69.552	890.59	206.81	-310.12	943.65	323.29	-302.43	948.28	248.91	-216.7	790.41	489.19	-169.05	804.26	99.273	-222.1	939.16	453.46	-186.55	942.54	121.69	-335.39	901.32	276.84	-265.96	588.32	463.49	-234.13	497.59	427.8	-305.3	509.6	440.03	-199.1	577.62	448.91	-316	429.64	423.08	-323.73	422.72	278.63	-476.09	276.54	401.48	-445.62	171.65	382.25	-502.82	208.23	390.97	-416.96	233.29	400.89	-531.7	112.64	376.78	-520.32	129.09	292.41	-596.04	112.94	320.76	-588.67	79.922	292.37	-599.28	80.413	355.53	-444.97	38.122	397.86	-412.5	31.921	290.98	-363.43	54.015	345.85	-102.12	579.14	120.15	-0.11052	541.13	137.45	-66.372	498.71	145.37	-45.272	621.84	112.56	14.772	462.04	145.48	1.2975	454.62	285.79	-16.745	275.11	145.93	77.286	214.85	156.23	5.1543	205.21	161.16	48.118	284.19	141.94	72.555	102.91	166.72	88.987	105.26	248.96	29.255	55.841	202.85	44.418	35.075	237.87	42.461	28.715	176.18	201.99	66.845	143.89	217.44	91.292	250	268.67	123.91	202.01	-231.72	1370.4	304.03	-315.15	1120.2	311.13
222	0.92083	-47.806	1059.3	296.61	-142.67	1301.8	441.35	-160.05	1310.7	147.92	-75.275	1585.5	298.02	-103.89	893.65	416.98	-62.577	889.73	206.68	-303.43	942.72	322.74	-295.7	947.47	248.39	-210.33	789.29	488.76	-161.98	804.01	98.94	-215.67	938.21	453.14	-179.39	941.81	121.17	-328.56	900.41	276.15	-259.62	587.44	463.02	-227.53	496.61	427.96	-298.76	508.62	439.73	-192.66	576.74	448.96	-309.49	428.65	423.13	-316.55	421.33	278.7	-471.6	277.99	401.64	-442.99	172.54	382.69	-499.45	210.05	391.2	-413.3	233.78	401.17	-529.81	114.62	377.31	-517.97	131.1	292.97	-593.94	116.39	321.3	-587.18	83.465	292.69	-597.85	83.754	355.86	-444.68	38.171	397.98	-412.48	32.01	291.06	-363.39	53.747	345.8	-95.849	578.46	120.14	6.1173	540.35	137.44	-60.18	498.01	145.43	-38.982	621.08	112.47	20.838	461.15	145.52	8.0044	454.2	285.61	-12.063	274.59	146.12	81.237	213.38	156.84	9.0257	204.48	161.43	52.866	282.99	142.47	75.156	101.98	167.2	91.343	103.86	249.53	31.009	56.137	203.11	45.628	34.836	238.07	43.721	28.927	176.33	203.87	64.322	144.45	219.53	88.03	250.74	271.36	119.89	202.95	-225.6	1369.6	303	-308.65	1119.3	310.31
223	0.925	-41.14	1058.7	296.24	-136.68	1301.3	440.58	-153.59	1309.8	147	-69.367	1585	297.14	-97.312	892.86	416.75	-55.626	888.96	206.49	-296.71	941.86	322.26	-288.99	946.75	247.95	-203.86	788.19	488.33	-154.97	803.88	98.566	-209.13	937.34	452.83	-172.27	941.19	120.65	-321.71	899.58	275.54	-253.1	586.55	462.53	-220.68	495.65	428.13	-291.98	507.63	439.44	-186.03	575.91	449	-302.72	427.66	423.22	-309.12	419.91	278.82	-466.86	279.52	401.84	-440.16	173.53	383.18	-495.85	211.99	391.44	-409.43	234.34	401.51	-527.72	116.74	377.87	-515.34	133.23	293.58	-591.57	120.07	321.87	-585.46	87.269	293.03	-596.21	87.36	356.2	-444.35	38.278	398.12	-412.45	32.138	291.15	-363.34	53.465	345.76	-89.623	577.87	120.14	12.307	539.66	137.38	-54.02	497.4	145.5	-32.744	620.4	112.34	26.921	460.36	145.55	14.737	453.91	285.42	-7.4275	274.21	146.3	85.091	211.99	157.45	12.802	203.9	161.69	57.568	281.89	142.98	77.537	101.14	167.68	93.485	102.54	250.07	32.509	56.529	203.38	46.575	34.694	238.27	44.71	29.231	176.49	205.48	61.802	144.98	221.39	84.748	251.45	273.83	115.79	203.84	-219.45	1368.9	301.95	-302.15	1118.4	309.47
224	0.92917	-34.473	1058.2	295.86	-130.69	1300.8	439.82	-147.12	1309	146.07	-63.443	1584.6	296.25	-90.688	892.12	416.44	-48.707	888.31	206.24	-289.98	941.07	321.85	-282.29	946.13	247.56	-197.3	787.11	487.9	-148.01	803.86	98.148	-202.51	936.55	452.54	-165.2	940.7	120.15	-314.86	898.82	274.99	-246.39	585.67	462.04	-213.6	494.72	428.31	-284.97	506.61	439.16	-179.21	575.13	449.04	-295.67	426.65	423.37	-301.45	418.48	278.98	-461.87	281.14	402.06	-437.11	174.63	383.73	-492.01	214.05	391.72	-405.32	234.98	401.9	-525.41	119.01	378.46	-512.43	135.48	294.23	-588.91	124	322.46	-583.5	91.34	293.39	-594.33	91.241	356.56	-443.97	38.456	398.27	-412.41	32.312	291.26	-363.28	53.167	345.74	-83.439	577.36	120.12	18.461	539.05	137.26	-47.893	496.87	145.55	-26.553	619.81	112.17	33.022	459.69	145.56	21.471	453.73	285.23	-2.8252	273.97	146.45	88.864	210.7	158.03	16.503	203.45	161.92	62.234	280.89	143.48	79.726	100.4	168.14	95.439	101.32	250.6	33.796	56.998	203.64	47.307	34.642	238.46	45.475	29.613	176.64	206.85	59.319	145.48	223.05	81.487	252.12	276.1	111.69	204.68	-213.28	1368.3	300.88	-295.63	1117.7	308.63
225	0.93333	-27.811	1057.7	295.47	-124.69	1300.5	439.07	-140.62	1308.2	145.14	-57.502	1584.2	295.36	-84.027	891.46	416.05	-41.828	887.76	205.92	-283.23	940.35	321.51	-275.62	945.6	247.25	-190.66	786.05	487.49	-141.11	803.95	97.685	-195.79	935.84	452.27	-158.2	940.33	119.67	-308.02	898.15	274.51	-239.49	584.79	461.56	-206.27	493.82	428.49	-277.71	505.57	438.91	-172.19	574.41	449.07	-288.33	425.62	423.57	-293.53	417.02	279.21	-456.59	282.84	402.31	-433.81	175.84	384.33	-487.89	216.23	392.03	-400.97	235.7	402.36	-522.86	121.44	379.07	-509.21	137.85	294.93	-585.92	128.18	323.08	-581.25	95.684	293.75	-592.19	95.406	356.93	-443.53	38.718	398.44	-412.33	32.544	291.37	-363.2	52.851	345.72	-77.293	576.95	120.08	24.578	538.54	137.1	-41.798	496.45	145.6	-20.405	619.3	111.96	39.142	459.14	145.55	28.181	453.67	285.03	1.7505	273.88	146.57	92.567	209.52	158.59	20.138	203.15	162.11	66.87	280.01	143.94	81.743	99.743	168.57	97.226	100.21	251.09	34.903	57.527	203.89	47.866	34.671	238.65	46.059	30.056	176.79	208.02	56.903	145.94	224.53	78.291	252.74	278.18	107.62	205.46	-207.08	1367.8	299.8	-289.1	1117	307.78
226	0.9375	-21.159	1057.4	295.06	-118.69	1300.2	438.32	-134.11	1307.6	144.2	-51.542	1584	294.46	-77.336	890.86	415.57	-34.996	887.33	205.54	-276.48	939.7	321.25	-268.99	945.16	247.01	-183.93	785.02	487.07	-134.27	804.15	97.177	-188.98	935.23	452.02	-151.27	940.09	119.21	-301.19	897.55	274.11	-232.39	583.93	461.09	-198.68	492.95	428.7	-270.21	504.51	438.68	-164.97	573.74	449.09	-280.68	424.59	423.84	-285.34	415.55	279.5	-451.02	284.62	402.59	-430.25	177.16	384.99	-483.49	218.52	392.37	-396.34	236.49	402.88	-520.04	124.03	379.7	-505.67	140.35	295.67	-582.58	132.6	323.71	-578.71	100.3	294.12	-589.76	99.862	357.31	-443.02	39.079	398.62	-412.22	32.843	291.5	-363.09	52.512	345.72	-71.185	576.63	120.02	30.661	538.12	136.88	-35.736	496.12	145.62	-14.297	618.9	111.7	45.281	458.71	145.53	34.845	453.72	284.82	6.3006	273.94	146.64	96.202	208.45	159.11	23.714	202.99	162.26	71.475	279.24	144.36	83.605	99.18	168.98	98.862	99.212	251.54	35.859	58.097	204.12	48.289	34.771	238.82	46.499	30.542	176.93	209.02	54.578	146.35	225.85	75.194	253.32	280.08	103.65	206.18	-200.86	1367.3	298.72	-282.58	1116.5	306.94
